<?xml version="1.0" encoding="utf-8"?>
<!-- Generator: Adobe Illustrator 22.1.0, SVG Export Plug-In . SVG Version: 6.00 Build 0)  -->
<svg version="1.1" id="Calque_1" xmlns="http://www.w3.org/2000/svg" xmlns:xlink="http://www.w3.org/1999/xlink" x="0px" y="0px"
	 viewBox="0 0 128.1 60.5" style="enable-background:new 0 0 128.1 60.5;" xml:space="preserve">
<style type="text/css">
	.st0{fill:#010202;}
	.st1{fill:#00AFA0;}
</style>
<g>
	<g>
		<g>
			<path class="st0" d="M38.1,42.2l3,5.8l3-5.8h2v9.1h-1.6v-6.5l-2.8,5.6h-1.1l-2.8-5.6v6.5h-1.6v-9.1H38.1z"/>
			<path class="st0" d="M54.4,49.3H50l-0.8,1.9h-1.8l4-9.1h1.8l3.9,9.1h-1.9L54.4,49.3z M53.8,47.8L52.2,44l-1.6,3.8H53.8z"/>
			<path class="st0" d="M61.3,43.6c-0.8,0-1.3,0.3-1.3,0.9c0,1.9,4.9,0.9,4.9,4.2c0,1.7-1.5,2.7-3.5,2.7c-1.4,0-2.9-0.6-3.8-1.4
				l0.7-1.5c0.9,0.9,2.2,1.4,3.1,1.4c1,0,1.6-0.4,1.6-1c0-1.9-4.9-0.8-4.9-4.1c0-1.6,1.4-2.6,3.4-2.6c1.2,0,2.4,0.4,3.3,1L64,44.5
				C63,43.9,62,43.6,61.3,43.6z"/>
			<path class="st0" d="M73.1,42.2v1.5h-2.8v7.5h-1.7v-7.5h-2.8v-1.5H73.1z"/>
			<path class="st0" d="M81.2,42.2v1.5h-4.9v2.2h4.4v1.5h-4.4v2.3h5.1v1.5h-6.8v-9.1H81.2z M78.7,41.3l-1.3,0.1l-1.6-1.3l1.6-0.7
				L78.7,41.3z"/>
			<path class="st0" d="M89,51.2l-1.6-2.7c-0.1,0-0.2,0-0.3,0h-2v2.7h-1.7v-9.1h3.8c2.3,0,3.7,1.1,3.7,3.1c0,1.4-0.6,2.4-1.8,2.9
				l2,3H89z M85,47h2c1.3,0,2-0.6,2-1.7c0-1.1-0.7-1.7-2-1.7h-2V47z"/>
			<path class="st0" d="M99.5,42.2v1.5h-4.9v2.2H99v1.5h-4.4v2.3h5.1v1.5h-6.8v-9.1H99.5z"/>
			<path class="st0" d="M104.7,43.6c-0.8,0-1.3,0.3-1.3,0.9c0,1.9,4.9,0.9,4.9,4.2c0,1.7-1.5,2.7-3.5,2.7c-1.4,0-2.9-0.6-3.8-1.4
				l0.7-1.5c0.9,0.9,2.2,1.4,3.1,1.4c1,0,1.6-0.4,1.6-1c0-1.9-4.9-0.8-4.9-4.1c0-1.6,1.4-2.6,3.4-2.6c1.2,0,2.4,0.4,3.3,1l-0.7,1.5
				C106.4,43.9,105.4,43.6,104.7,43.6z"/>
		</g>
		<path class="st1" d="M78.9,8.5c-7.4,0-13.4,6-13.4,13.4s6,13.4,13.4,13.4s13.4-6,13.4-13.4S86.2,8.5,78.9,8.5 M78.9,28.9
			c-3.9,0-7-3.1-7-7s3.1-7,7-7c3.9,0,7,3.1,7,7S82.7,28.9,78.9,28.9"/>
		<path class="st1" d="M49.4,8.5c-7.4,0-13.4,6-13.4,13.4v12.7h6.4l0-12.7c0-3.9,3.1-7,7-7s7,3.1,7,7v12.7h6.4l0-12.7
			C62.8,14.5,56.8,8.5,49.4,8.5"/>
		<polygon class="st1" points="30.3,9.2 13.6,51.2 20.4,51.2 37.2,9.2 		"/>
		<path class="st1" d="M21.6,22.4c0-0.9-0.2-1.7-0.5-2.4L16.9,9.2H10l7.6,19.1C20,27.3,21.6,25.1,21.6,22.4"/>
		<polygon class="st1" points="111.4,9.2 101.3,34.6 108.1,34.6 118.3,9.2 		"/>
		<path class="st1" d="M102.3,20L98,9.2h-6.8l7.6,19.1c2.4-0.9,4-3.2,4-5.9C102.7,21.5,102.6,20.7,102.3,20"/>
	</g>
</g>
</svg>
