<?xml version="1.0" encoding="UTF-8" standalone="no"?>
<!DOCTYPE svg PUBLIC "-//W3C//DTD SVG 1.1//EN"
 "http://www.w3.org/Graphics/SVG/1.1/DTD/svg11.dtd">
<!-- Generated by graphviz version 2.40.1 (20161225.0304)
 -->
<!-- Title: dependencies Pages: 1 -->
<svg width="1527pt" height="284pt"
 viewBox="0.00 0.00 1527.00 284.00" xmlns="http://www.w3.org/2000/svg" xmlns:xlink="http://www.w3.org/1999/xlink">
<g id="graph0" class="graph" transform="scale(1 1) rotate(0) translate(4 280)">
<title>dependencies</title>
<polygon fill="#ffffff" stroke="transparent" points="-4,4 -4,-280 1523,-280 1523,4 -4,4"/>
<text text-anchor="start" x="738.5091" y="-42.4" font-family="sans-serif" font-weight="bold" font-size="14.00" fill="#000000">Legend</text>
<polygon fill="#ffffb3" stroke="transparent" points="525.5,-10 525.5,-30 545.5,-30 545.5,-10 525.5,-10"/>
<text text-anchor="start" x="549.129" y="-15.4" font-family="sans-serif" font-size="14.00" fill="#000000"> &#160;Declarations</text>
<polygon fill="#8dd3c7" stroke="transparent" points="638.5,-10 638.5,-30 658.5,-30 658.5,-10 638.5,-10"/>
<text text-anchor="start" x="662.2251" y="-15.4" font-family="sans-serif" font-size="14.00" fill="#000000"> &#160;Module</text>
<polygon fill="#80b1d3" stroke="transparent" points="724.5,-10 724.5,-30 744.5,-30 744.5,-10 724.5,-10"/>
<text text-anchor="start" x="748.2812" y="-15.4" font-family="sans-serif" font-size="14.00" fill="#000000"> &#160;Bootstrap</text>
<polygon fill="#fdb462" stroke="transparent" points="821.5,-10 821.5,-30 841.5,-30 841.5,-10 821.5,-10"/>
<text text-anchor="start" x="845.1732" y="-15.4" font-family="sans-serif" font-size="14.00" fill="#000000"> &#160;Providers</text>
<polygon fill="#fb8072" stroke="transparent" points="917.5,-10 917.5,-30 937.5,-30 937.5,-10 917.5,-10"/>
<text text-anchor="start" x="941.2258" y="-15.4" font-family="sans-serif" font-size="14.00" fill="#000000"> &#160;Exports</text>
<g id="clust1" class="cluster">
<title>cluster_AppModule</title>
<polygon fill="none" stroke="#000000" stroke-dasharray="1,5" points="8,-70 8,-268 1511,-268 1511,-70 8,-70"/>
</g>
<g id="clust2" class="cluster">
<title>cluster_AppModule_declarations</title>
<polygon fill="none" stroke="#000000" points="542,-78 542,-130 1503,-130 1503,-78 542,-78"/>
</g>
<g id="clust10" class="cluster">
<title>cluster_AppModule_imports</title>
<polygon fill="none" stroke="#000000" points="390,-78 390,-130 534,-130 534,-78 390,-78"/>
</g>
<g id="clust12" class="cluster">
<title>cluster_AppModule_bootstrap</title>
<polygon fill="none" stroke="#000000" points="757,-208 757,-260 881,-260 881,-208 757,-208"/>
</g>
<g id="clust13" class="cluster">
<title>cluster_AppModule_providers</title>
<polygon fill="none" stroke="#000000" points="16,-78 16,-130 382,-130 382,-78 16,-78"/>
</g>
<!-- AppComponent -->
<g id="node1" class="node">
<title>AppComponent</title>
<polygon fill="#ffffb3" stroke="#000000" points="1494.9399,-122 1389.0601,-122 1389.0601,-86 1494.9399,-86 1494.9399,-122"/>
<text text-anchor="middle" x="1442" y="-99.8" font-family="Times,serif" font-size="14.00" fill="#000000">AppComponent</text>
</g>
<!-- AppModule -->
<g id="node8" class="node">
<title>AppModule</title>
<polygon fill="#8dd3c7" stroke="#000000" points="860.6571,-187 857.6571,-191 836.6571,-191 833.6571,-187 777.3429,-187 777.3429,-151 860.6571,-151 860.6571,-187"/>
<text text-anchor="middle" x="819" y="-164.8" font-family="Times,serif" font-size="14.00" fill="#000000">AppModule</text>
</g>
<!-- AppComponent&#45;&gt;AppModule -->
<g id="edge1" class="edge">
<title>AppComponent&#45;&gt;AppModule</title>
<path fill="none" stroke="#000000" d="M1442,-122.0109C1442,-144.4852 1442,-180 1442,-180 1442,-180 870.8442,-180 870.8442,-180"/>
<polygon fill="#000000" stroke="#000000" points="870.8442,-176.5001 860.8442,-180 870.8441,-183.5001 870.8442,-176.5001"/>
</g>
<!-- DecoderComponent -->
<g id="node2" class="node">
<title>DecoderComponent</title>
<polygon fill="#ffffb3" stroke="#000000" points="1371.2437,-122 1242.7563,-122 1242.7563,-86 1371.2437,-86 1371.2437,-122"/>
<text text-anchor="middle" x="1307" y="-99.8" font-family="Times,serif" font-size="14.00" fill="#000000">DecoderComponent</text>
</g>
<!-- DecoderComponent&#45;&gt;AppModule -->
<g id="edge2" class="edge">
<title>DecoderComponent&#45;&gt;AppModule</title>
<path fill="none" stroke="#000000" d="M1307,-122.1289C1307,-142.5724 1307,-173 1307,-173 1307,-173 871.029,-173 871.029,-173"/>
<polygon fill="#000000" stroke="#000000" points="871.029,-169.5001 861.029,-173 871.0289,-176.5001 871.029,-169.5001"/>
</g>
<!-- ExempleComponent -->
<g id="node3" class="node">
<title>ExempleComponent</title>
<polygon fill="#ffffb3" stroke="#000000" points="1224.5954,-122 1093.4046,-122 1093.4046,-86 1224.5954,-86 1224.5954,-122"/>
<text text-anchor="middle" x="1159" y="-99.8" font-family="Times,serif" font-size="14.00" fill="#000000">ExempleComponent</text>
</g>
<!-- ExempleComponent&#45;&gt;AppModule -->
<g id="edge3" class="edge">
<title>ExempleComponent&#45;&gt;AppModule</title>
<path fill="none" stroke="#000000" d="M1159,-122.2667C1159,-140.5552 1159,-166 1159,-166 1159,-166 870.6907,-166 870.6907,-166"/>
<polygon fill="#000000" stroke="#000000" points="870.6907,-162.5001 860.6907,-166 870.6906,-169.5001 870.6907,-162.5001"/>
</g>
<!-- HomeComponent -->
<g id="node4" class="node">
<title>HomeComponent</title>
<polygon fill="#ffffb3" stroke="#000000" points="1075.5451,-122 960.4549,-122 960.4549,-86 1075.5451,-86 1075.5451,-122"/>
<text text-anchor="middle" x="1018" y="-99.8" font-family="Times,serif" font-size="14.00" fill="#000000">HomeComponent</text>
</g>
<!-- HomeComponent&#45;&gt;AppModule -->
<g id="edge4" class="edge">
<title>HomeComponent&#45;&gt;AppModule</title>
<path fill="none" stroke="#000000" d="M1018,-122.0091C1018,-138.0494 1018,-159 1018,-159 1018,-159 870.7169,-159 870.7169,-159"/>
<polygon fill="#000000" stroke="#000000" points="870.717,-155.5001 860.7169,-159 870.7169,-162.5001 870.717,-155.5001"/>
</g>
<!-- LoginComponent -->
<g id="node5" class="node">
<title>LoginComponent</title>
<polygon fill="#ffffb3" stroke="#000000" points="942.2758,-122 827.7242,-122 827.7242,-86 942.2758,-86 942.2758,-122"/>
<text text-anchor="middle" x="885" y="-99.8" font-family="Times,serif" font-size="14.00" fill="#000000">LoginComponent</text>
</g>
<!-- LoginComponent&#45;&gt;AppModule -->
<g id="edge5" class="edge">
<title>LoginComponent&#45;&gt;AppModule</title>
<path fill="none" stroke="#000000" d="M844.2202,-122.1061C844.2202,-122.1061 844.2202,-140.991 844.2202,-140.991"/>
<polygon fill="#000000" stroke="#000000" points="840.7203,-140.9909 844.2202,-150.991 847.7203,-140.991 840.7203,-140.9909"/>
</g>
<!-- ProfilComponent -->
<g id="node6" class="node">
<title>ProfilComponent</title>
<polygon fill="#ffffb3" stroke="#000000" points="809.7176,-122 696.2824,-122 696.2824,-86 809.7176,-86 809.7176,-122"/>
<text text-anchor="middle" x="753" y="-99.8" font-family="Times,serif" font-size="14.00" fill="#000000">ProfilComponent</text>
</g>
<!-- ProfilComponent&#45;&gt;AppModule -->
<g id="edge6" class="edge">
<title>ProfilComponent&#45;&gt;AppModule</title>
<path fill="none" stroke="#000000" d="M793.3902,-122.1061C793.3902,-122.1061 793.3902,-140.991 793.3902,-140.991"/>
<polygon fill="#000000" stroke="#000000" points="789.8903,-140.9909 793.3902,-150.991 796.8903,-140.991 789.8903,-140.9909"/>
</g>
<!-- RegisterComponent -->
<g id="node7" class="node">
<title>RegisterComponent</title>
<polygon fill="#ffffb3" stroke="#000000" points="677.9846,-122 550.0154,-122 550.0154,-86 677.9846,-86 677.9846,-122"/>
<text text-anchor="middle" x="614" y="-99.8" font-family="Times,serif" font-size="14.00" fill="#000000">RegisterComponent</text>
</g>
<!-- RegisterComponent&#45;&gt;AppModule -->
<g id="edge7" class="edge">
<title>RegisterComponent&#45;&gt;AppModule</title>
<path fill="none" stroke="#000000" d="M614,-122.0091C614,-138.0494 614,-159 614,-159 614,-159 767.0205,-159 767.0205,-159"/>
<polygon fill="#000000" stroke="#000000" points="767.0205,-162.5001 777.0205,-159 767.0205,-155.5001 767.0205,-162.5001"/>
</g>
<!-- AppComponent  -->
<g id="node10" class="node">
<title>AppComponent </title>
<polygon fill="#80b1d3" stroke="#000000" points="873.439,-252 764.561,-252 764.561,-216 873.439,-216 873.439,-252"/>
<text text-anchor="middle" x="819" y="-229.8" font-family="Times,serif" font-size="14.00" fill="#000000">AppComponent </text>
</g>
<!-- AppModule&#45;&gt;AppComponent  -->
<g id="edge9" class="edge">
<title>AppModule&#45;&gt;AppComponent </title>
<path fill="none" stroke="#000000" stroke-dasharray="1,5" d="M819,-187.1061C819,-187.1061 819,-205.991 819,-205.991"/>
<polygon fill="#000000" stroke="#000000" points="815.5001,-205.9909 819,-215.991 822.5001,-205.991 815.5001,-205.9909"/>
</g>
<!-- AppRoutingModule -->
<g id="node9" class="node">
<title>AppRoutingModule</title>
<polygon fill="#8dd3c7" stroke="#000000" points="526.2744,-122 523.2744,-126 502.2744,-126 499.2744,-122 397.7256,-122 397.7256,-86 526.2744,-86 526.2744,-122"/>
<text text-anchor="middle" x="462" y="-99.8" font-family="Times,serif" font-size="14.00" fill="#000000">AppRoutingModule</text>
</g>
<!-- AppRoutingModule&#45;&gt;AppModule -->
<g id="edge8" class="edge">
<title>AppRoutingModule&#45;&gt;AppModule</title>
<path fill="none" stroke="#000000" d="M462,-122.2667C462,-140.5552 462,-166 462,-166 462,-166 766.9978,-166 766.9978,-166"/>
<polygon fill="#000000" stroke="#000000" points="766.9978,-169.5001 776.9978,-166 766.9977,-162.5001 766.9978,-169.5001"/>
</g>
<!-- AuthService -->
<g id="node11" class="node">
<title>AuthService</title>
<ellipse fill="#fdb462" stroke="#000000" cx="315" cy="-104" rx="59.1083" ry="18"/>
<text text-anchor="middle" x="315" y="-99.8" font-family="Times,serif" font-size="14.00" fill="#000000">AuthService</text>
</g>
<!-- AuthService&#45;&gt;AppModule -->
<g id="edge10" class="edge">
<title>AuthService&#45;&gt;AppModule</title>
<path fill="none" stroke="#000000" d="M315,-122.1289C315,-142.5724 315,-173 315,-173 315,-173 767.3268,-173 767.3268,-173"/>
<polygon fill="#000000" stroke="#000000" points="767.3268,-176.5001 777.3268,-173 767.3267,-169.5001 767.3268,-176.5001"/>
</g>
<!-- TokenInterceptorService -->
<g id="node12" class="node">
<title>TokenInterceptorService</title>
<ellipse fill="#fdb462" stroke="#000000" cx="131" cy="-104" rx="107.0415" ry="18"/>
<text text-anchor="middle" x="131" y="-99.8" font-family="Times,serif" font-size="14.00" fill="#000000">TokenInterceptorService</text>
</g>
<!-- TokenInterceptorService&#45;&gt;AppModule -->
<g id="edge11" class="edge">
<title>TokenInterceptorService&#45;&gt;AppModule</title>
<path fill="none" stroke="#000000" d="M131,-122.0109C131,-144.4852 131,-180 131,-180 131,-180 767.2554,-180 767.2554,-180"/>
<polygon fill="#000000" stroke="#000000" points="767.2554,-183.5001 777.2554,-180 767.2553,-176.5001 767.2554,-183.5001"/>
</g>
</g>
</svg>
